<?xml version="1.0" encoding="UTF-8"?>
<svg xmlns="http://www.w3.org/2000/svg" xmlns:xlink="http://www.w3.org/1999/xlink" width="133pt" height="55pt" viewBox="0 0 133 55" version="1.1">
<g id="surface1">
<path style=" stroke:none;fill-rule:nonzero;fill:rgb(100%,100%,100%);fill-opacity:1;" d="M 54.921875 24.039062 L 56.015625 24.039062 L 56.015625 19.972656 L 58.007812 19.972656 L 61.199219 24.039062 L 62.648438 24.039062 L 59.386719 19.867188 C 60.898438 19.507812 61.839844 18.300781 61.839844 16.628906 C 61.839844 14.628906 60.464844 13.289062 58.425781 13.289062 L 54.921875 13.289062 Z M 56.015625 18.917969 L 56.015625 14.339844 L 58.425781 14.339844 C 59.804688 14.339844 60.703125 15.261719 60.703125 16.628906 C 60.703125 18 59.789062 18.917969 58.425781 18.917969 Z M 56.015625 18.917969 "/>
<path style=" stroke:none;fill-rule:nonzero;fill:rgb(100%,100%,100%);fill-opacity:1;" d="M 63.988281 24.039062 L 70.191406 24.039062 L 70.191406 22.984375 L 65.082031 22.984375 L 65.082031 18.40625 L 69.890625 18.40625 L 69.890625 17.351562 L 65.082031 17.351562 L 65.082031 14.339844 L 70.191406 14.339844 L 70.191406 13.289062 L 63.988281 13.289062 Z M 63.988281 24.039062 "/>
<path style=" stroke:none;fill-rule:nonzero;fill:rgb(100%,100%,100%);fill-opacity:1;" d="M 71.246094 24.039062 L 72.425781 24.039062 L 74.34375 19.761719 L 78.941406 19.761719 L 80.859375 24.039062 L 82.042969 24.039062 L 77.234375 13.289062 L 76.050781 13.289062 Z M 78.476562 18.707031 L 74.808594 18.707031 L 76.652344 14.613281 Z M 78.476562 18.707031 "/>
<path style=" stroke:none;fill-rule:nonzero;fill:rgb(100%,100%,100%);fill-opacity:1;" d="M 82.941406 24.039062 L 88.960938 24.039062 L 88.960938 22.984375 L 84.035156 22.984375 L 84.035156 13.289062 L 82.941406 13.289062 Z M 82.941406 24.039062 "/>
<path style=" stroke:none;fill-rule:nonzero;fill:rgb(100%,100%,100%);fill-opacity:1;" d="M 90.605469 24.039062 L 91.699219 24.039062 L 91.699219 13.289062 L 90.605469 13.289062 Z M 90.605469 24.039062 "/>
<path style=" stroke:none;fill-rule:nonzero;fill:rgb(100%,100%,100%);fill-opacity:1;" d="M 99.761719 15.484375 C 99.523438 14.101562 98.308594 13.121094 96.8125 13.121094 C 94.96875 13.121094 93.742188 14.371094 93.742188 16 C 93.742188 17.625 94.820312 18.378906 96.8125 18.996094 C 98.503906 19.523438 99.148438 20.0625 99.148438 21.058594 C 99.148438 22.308594 98.113281 23.074219 96.8125 23.074219 C 95.660156 23.074219 94.714844 22.339844 94.503906 21.300781 L 93.367188 21.300781 C 93.578125 22.96875 95.03125 24.175781 96.8125 24.175781 C 98.742188 24.175781 100.285156 22.941406 100.285156 21.058594 C 100.285156 19.175781 98.804688 18.390625 96.8125 17.761719 C 95.523438 17.351562 94.878906 16.933594 94.878906 16 C 94.878906 15.0625 95.644531 14.222656 96.8125 14.222656 C 97.621094 14.222656 98.339844 14.777344 98.5625 15.484375 Z M 99.761719 15.484375 "/>
<path style=" stroke:none;fill-rule:nonzero;fill:rgb(100%,100%,100%);fill-opacity:1;" d="M 104.355469 24.039062 L 105.449219 24.039062 L 105.449219 14.339844 L 109.054688 14.339844 L 109.054688 13.289062 L 100.730469 13.289062 L 100.730469 14.339844 L 104.355469 14.339844 Z M 104.355469 24.039062 "/>
<path style=" stroke:none;fill-rule:nonzero;fill:rgb(100%,100%,100%);fill-opacity:1;" d="M 110.40625 24.039062 L 111.5 24.039062 L 111.5 13.289062 L 110.40625 13.289062 Z M 110.40625 24.039062 "/>
<path style=" stroke:none;fill-rule:nonzero;fill:rgb(100%,100%,100%);fill-opacity:1;" d="M 122.125 21.480469 C 121.328125 22.472656 120.101562 23.089844 118.722656 23.089844 C 116.253906 23.089844 114.277344 21.101562 114.277344 18.617188 C 114.277344 16.253906 116.253906 14.265625 118.722656 14.265625 C 120.085938 14.265625 121.285156 14.867188 122.09375 15.816406 L 123.457031 15.816406 C 122.484375 14.25 120.730469 13.167969 118.722656 13.167969 C 115.65625 13.167969 113.136719 15.667969 113.136719 18.617188 C 113.136719 21.691406 115.65625 24.191406 118.722656 24.191406 C 120.746094 24.191406 122.511719 23.105469 123.484375 21.480469 Z M 122.125 21.480469 "/>
<path style=" stroke:none;fill-rule:nonzero;fill:rgb(100%,100%,100%);fill-opacity:1;" d="M 61.382812 33.335938 C 61.140625 31.949219 59.902344 30.96875 58.375 30.96875 C 56.496094 30.96875 55.242188 32.21875 55.242188 33.847656 C 55.242188 35.472656 56.34375 36.226562 58.375 36.84375 C 60.101562 37.371094 60.757812 37.914062 60.757812 38.90625 C 60.757812 40.15625 59.703125 40.925781 58.375 40.925781 C 57.199219 40.925781 56.238281 40.1875 56.023438 39.148438 L 54.863281 39.148438 C 55.074219 40.820312 56.558594 42.023438 58.375 42.023438 C 60.34375 42.023438 61.917969 40.789062 61.917969 38.90625 C 61.917969 37.023438 60.40625 36.242188 58.375 35.609375 C 57.0625 35.203125 56.40625 34.78125 56.40625 33.847656 C 56.40625 32.914062 57.183594 32.070312 58.375 32.070312 C 59.199219 32.070312 59.933594 32.628906 60.160156 33.335938 Z M 61.382812 33.335938 "/>
<path style=" stroke:none;fill-rule:nonzero;fill:rgb(100%,100%,100%);fill-opacity:1;" d="M 63.589844 41.890625 L 69.914062 41.890625 L 69.914062 40.835938 L 64.703125 40.835938 L 64.703125 36.257812 L 69.605469 36.257812 L 69.605469 35.203125 L 64.703125 35.203125 L 64.703125 32.191406 L 69.914062 32.191406 L 69.914062 31.136719 L 63.589844 31.136719 Z M 63.589844 41.890625 "/>
<path style=" stroke:none;fill-rule:nonzero;fill:rgb(100%,100%,100%);fill-opacity:1;" d="M 80.609375 39.328125 C 79.800781 40.324219 78.546875 40.941406 77.144531 40.941406 C 74.625 40.941406 72.609375 38.953125 72.609375 36.46875 C 72.609375 34.101562 74.625 32.113281 77.144531 32.113281 C 78.535156 32.113281 79.753906 32.71875 80.578125 33.667969 L 81.96875 33.667969 C 80.976562 32.101562 79.191406 31.015625 77.144531 31.015625 C 74.011719 31.015625 71.445312 33.515625 71.445312 36.46875 C 71.445312 39.539062 74.011719 42.039062 77.144531 42.039062 C 79.207031 42.039062 81.007812 40.957031 82 39.328125 Z M 80.609375 39.328125 "/>
<path style=" stroke:none;fill-rule:nonzero;fill:rgb(100%,100%,100%);fill-opacity:1;" d="M 87.738281 42.128906 C 90.367188 42.128906 91.910156 40.59375 91.910156 38.003906 L 91.910156 31.136719 L 90.792969 31.136719 L 90.792969 38.003906 C 90.792969 39.902344 89.664062 41.03125 87.738281 41.03125 C 85.800781 41.03125 84.652344 39.902344 84.652344 38.003906 L 84.652344 31.136719 L 83.539062 31.136719 L 83.539062 38.003906 C 83.539062 40.59375 85.097656 42.128906 87.738281 42.128906 Z M 87.738281 42.128906 "/>
<path style=" stroke:none;fill-rule:nonzero;fill:rgb(100%,100%,100%);fill-opacity:1;" d="M 94.046875 41.890625 L 95.160156 41.890625 L 95.160156 37.824219 L 97.191406 37.824219 L 100.445312 41.890625 L 101.925781 41.890625 L 98.597656 37.71875 C 100.140625 37.355469 101.101562 36.152344 101.101562 34.480469 C 101.101562 32.476562 99.695312 31.136719 97.621094 31.136719 L 94.046875 31.136719 Z M 95.160156 36.769531 L 95.160156 32.191406 L 97.621094 32.191406 C 99.023438 32.191406 99.941406 33.109375 99.941406 34.480469 C 99.941406 35.851562 99.011719 36.769531 97.621094 36.769531 Z M 95.160156 36.769531 "/>
<path style=" stroke:none;fill-rule:nonzero;fill:rgb(100%,100%,100%);fill-opacity:1;" d="M 103.292969 41.890625 L 104.410156 41.890625 L 104.410156 31.136719 L 103.292969 31.136719 Z M 103.292969 41.890625 "/>
<path style=" stroke:none;fill-rule:nonzero;fill:rgb(100%,100%,100%);fill-opacity:1;" d="M 109.46875 41.890625 L 110.585938 41.890625 L 110.585938 32.191406 L 114.265625 32.191406 L 114.265625 31.136719 L 105.773438 31.136719 L 105.773438 32.191406 L 109.46875 32.191406 Z M 109.46875 41.890625 "/>
<path style=" stroke:none;fill-rule:nonzero;fill:rgb(100%,100%,100%);fill-opacity:1;" d="M 116.933594 41.890625 L 118.140625 41.890625 L 123.484375 31.136719 L 122.28125 31.136719 L 119.101562 37.535156 L 115.925781 31.136719 L 114.71875 31.136719 L 118.492188 38.742188 Z M 116.933594 41.890625 "/>
<path style=" stroke:none;fill-rule:nonzero;fill:rgb(38.823529%,58.431373%,0%);fill-opacity:1;" d="M 49.835938 15.503906 L 32.035156 15.503906 L 35.851562 22.148438 L 46.019531 22.148438 Z M 49.835938 15.503906 "/>
<path style=" stroke:none;fill-rule:nonzero;fill:rgb(38.823529%,58.431373%,0%);fill-opacity:1;" d="M 11.691406 15.503906 L 29.492188 15.503906 L 25.675781 22.144531 L 15.507812 22.144531 Z M 11.691406 15.503906 "/>
<path style=" stroke:none;fill-rule:nonzero;fill:rgb(38.823529%,58.431373%,0%);fill-opacity:1;" d="M 6.605469 6.644531 L 24.40625 6.644531 L 28.21875 13.289062 L 10.421875 13.289062 Z M 6.605469 6.644531 "/>
<path style=" stroke:none;fill-rule:nonzero;fill:rgb(38.823529%,58.431373%,0%);fill-opacity:1;" d="M 54.921875 6.644531 L 37.121094 6.644531 L 33.308594 13.289062 L 51.105469 13.289062 Z M 54.921875 6.644531 "/>
<path style=" stroke:none;fill-rule:nonzero;fill:rgb(34.117647%,50.980392%,0%);fill-opacity:1;" d="M 20.59375 15.503906 L 29.492188 15.503906 L 25.679688 22.144531 Z M 20.59375 15.503906 "/>
<path style=" stroke:none;fill-rule:nonzero;fill:rgb(34.117647%,50.980392%,0%);fill-opacity:1;" d="M 40.933594 15.503906 L 32.035156 15.503906 L 35.847656 22.148438 Z M 40.933594 15.503906 "/>
<path style=" stroke:none;fill-rule:nonzero;fill:rgb(34.117647%,50.980392%,0%);fill-opacity:1;" d="M 28.222656 13.289062 L 16.777344 6.644531 L 19.320312 13.289062 Z M 28.222656 13.289062 "/>
<path style=" stroke:none;fill-rule:nonzero;fill:rgb(34.117647%,50.980392%,0%);fill-opacity:1;" d="M 33.308594 13.289062 L 44.75 6.644531 L 42.207031 13.289062 Z M 33.308594 13.289062 "/>
<path style=" stroke:none;fill-rule:nonzero;fill:rgb(57.254902%,81.568627%,9.019608%);fill-opacity:1;" d="M 11.691406 15.503906 L 19.320312 15.503906 L 34.578125 42.078125 L 30.761719 48.71875 Z M 11.691406 15.503906 "/>
<path style=" stroke:none;fill-rule:nonzero;fill:rgb(34.117647%,50.980392%,0%);fill-opacity:1;" d="M 11.691406 15.503906 L 19.320312 15.503906 L 30.761719 35.433594 Z M 11.691406 15.503906 "/>
<path style=" stroke:none;fill-rule:nonzero;fill:rgb(38.823529%,58.431373%,0%);fill-opacity:1;" d="M 49.835938 15.503906 L 42.207031 15.503906 L 30.761719 35.433594 L 30.761719 48.71875 Z M 49.835938 15.503906 "/>
<path style=" stroke:none;fill-rule:nonzero;fill:rgb(61.568627%,83.529412%,18.039216%);fill-opacity:1;" d="M 49.835938 15.503906 L 42.207031 15.503906 L 30.761719 35.433594 Z M 49.835938 15.503906 "/>
<path style=" stroke:none;fill-rule:nonzero;fill:rgb(53.333333%,80%,0%);fill-opacity:1;" d="M 16.777344 6.644531 L 24.40625 6.644531 L 29.492188 15.5 L 25.679688 22.148438 Z M 16.777344 6.644531 "/>
<path style=" stroke:none;fill-rule:nonzero;fill:rgb(53.333333%,80%,0%);fill-opacity:1;" d="M 44.75 6.644531 L 37.121094 6.644531 L 32.035156 15.503906 L 35.847656 22.148438 Z M 44.75 6.644531 "/>
</g>
</svg>
