<svg version="1.2" xmlns="http://www.w3.org/2000/svg" viewBox="0 0 320 56" width="320" height="56">
	<title>eo4q4j97-ai</title>
	<style>
		.s0 { fill: #231f20 } 
	</style>
	<g id="Layer 2">
		<g id="chosen">
			<path id="&lt;Path&gt;" class="s0" d="m47.7 10.6q7.2-2 14.5-3.9c-0.5 0.5-0.8 1.1-1.4 1.4-2.2 0.7-4.4 1.2-6.6 1.7-7.4 2.3-14.9 4.2-22.2 6.7-3.5 0.9-6.8 2.3-10.1 3.6-0.8 0.3-1.4 1-2 1.5 0.7-1.2 1.5-2.5 2.9-3 8.1-3.2 16.5-5.5 24.9-8z"/>
			<path id="&lt;Path&gt;" class="s0" d="m77.2 8.8q0.3-0.8 0.6-1.6c1.1 0.4 2.2 0.3 3.3 0.2-0.1 1.5-1.2 2.6-2.3 3.4q0.1-0.8 0.3-1.5-0.8 0-1.5 0-0.2-0.2-0.4-0.5z"/>
			<path id="&lt;Path&gt;" class="s0" d="m83.9 12.9c4.1-1.6 8.2-3.3 12.4-4.5-0.7 1.9-2.9 1.8-4.4 2.5-3.4 1.4-7.2 2.1-10.1 4.4 0.4-1 0.9-2.1 2.1-2.4z"/>
			<g id="&lt;Group&gt;">
				<path id="&lt;Compound Path&gt;" fill-rule="evenodd" class="s0" d="m64.8 11.1c0.3-0.8 0.7-1.6 1.4-2.1 0.5 0.4 1.3 0.9 1 1.7-0.4 1.2-2 1.5-3.2 1.6 0 0.6 0 1.2-0.2 1.8-0.5-0.8-0.9-1.9-0.4-2.8q0.7-0.1 1.4-0.2zm0.3 0.1q0.7-0.2 1.4-0.4c-0.5-1-1.3-0.5-1.4 0.4z"/>
			</g>
			<g id="&lt;Group&gt;">
				<path id="&lt;Compound Path&gt;" fill-rule="evenodd" class="s0" d="m99.6 13.4c0.5-0.8 0.9-1.8 1.9-2.2 0.4 0.5 1.2 1 0.8 1.7-0.4 1.5-2.2 1.7-3.5 1.6q-0.2 0.6-0.4 1.1c-0.3-0.8-0.4-1.6-0.2-2.4q0.7 0.1 1.4 0.2zm0.4 0q0.8-0.1 1.7-0.2c-0.1-0.2-0.1-0.5-0.1-0.6-0.7-0.2-1.4 0-1.6 0.8z"/>
			</g>
			<path id="&lt;Path&gt;" class="s0" d="m111.2 11.8c1.5 1.6 2.7 4.1 1.6 6.2 0.1-1.5-0.4-3.1-1.4-4.1-0.7-0.6-0.4-1.4-0.2-2.1z"/>
			<path id="&lt;Path&gt;" class="s0" d="m73.6 12.7c1.7 1.8 2.6 4.6 1.8 7 0.1-1.8-0.4-3.5-1.6-4.9-0.6-0.5-0.4-1.4-0.2-2.1z"/>
			<g id="&lt;Group&gt;">
				<path id="&lt;Compound Path&gt;" fill-rule="evenodd" class="s0" d="m123 14.9c0.4-0.7 0.8-1.4 1.4-1.9 1.2 0.4 1.2 2.1 0.3 2.8-0.9 0.4-1.9 0.2-2.8 0.2q-0.2 0.7-0.4 1.3c-0.4-0.8-0.5-1.7-0.1-2.6q0.8 0.1 1.6 0.2zm0.6-0.6q0 0.4 0 0.7 0.5 0 1-0.1c0-0.1-0.1-0.4-0.2-0.6q-0.4 0-0.8 0z"/>
			</g>
			<path id="&lt;Path&gt;" class="s0" d="m58.6 13.3c0.2 0.8 0.7 1.5 1.4 2-0.7 1.1-0.5 2.5-0.3 3.7 0.3 2 0.6 4.1 0.8 6.1 0.2 1.5 0.5 3.1-0.4 4.4-0.3 0.8-1.2 0.9-1.9 1.1-0.6 1.7-1.3 3.4-2.6 4.5-1.7 1.9-4.7 1-6.3-0.5 2 0.8 4.5 0.9 6.2-0.7 0.9-0.8 2.4-1.9 1.7-3.3-0.4-0.6-0.3-1.3-0.1-2 1 0.7 2.3 0.5 3.2-0.1-0.4-4.5-1.3-9-2.2-13.4 0-0.6 0.3-1.2 0.5-1.8z"/>
			<path id="&lt;Path&gt;" class="s0" d="m64.1 17.7c-0.2-1.1 0.1-2.1 0.4-3.1 0.6 3.7 1.3 7.5 1.6 11.3 0 1 0.1 2-0.3 2.9-0.3-3.8-1-7.5-1.7-11.1z"/>
			<path id="&lt;Path&gt;" class="s0" d="m52.8 17.2q0.4-0.8 0.7-1.5c0.2 0.7 0.4 1.6-0.1 2.1-0.9 0.5-1.9 0.6-2.8 1.1-0.8-0.4-0.4-1.2-0.3-1.8q0.3 0.3 0.6 0.6 0.3-0.1 0.7-0.2 0.2-0.4 0.4-0.9 0.4 0.3 0.8 0.6z"/>
			<path id="&lt;Path&gt;" class="s0" d="m92.7 18c-0.3-0.7 0.1-1.5 0.4-2.2 0.1 0.8 0.5 1.5 1.3 1.7-0.4 1-0.7 2-0.4 3.1 0.6 3 1.2 6 1.4 9 0.1 1.5-0.9 2.6-2.2 3.2-1.1 2-2.1 4.2-4.2 5.3-1.6 0.2-3.1-0.5-4.5-1.3 1.2 0.3 2.6 0.5 3.8 0.2 1.5-0.6 2.7-1.7 3.6-2.9 1-1.1-0.6-2.3 0-3.6 0.8 0.7 2.1 0.8 3 0.1 0.2-2.1-0.5-4-0.8-6-0.5-2.2-0.7-4.4-1.4-6.6z"/>
			<path id="&lt;Path&gt;" class="s0" d="m88.3 18.1c0-0.5 0.1-1.1 0.3-1.6 0.7 0.7 0.6 1.9-0.1 2.5-0.9 0.3-1.7 0.7-2.6 1-0.9-0.1-0.5-1.3-0.5-1.9q0.3 0.4 0.6 0.7 0.4 0 0.8-0.1 0.2-0.6 0.4-1.2 0.2 0.3 0.5 0.6c0.1 0 0.4 0 0.6 0z"/>
			<g id="&lt;Group&gt;">
				<path id="&lt;Compound Path&gt;" fill-rule="evenodd" class="s0" d="m98.4 20.1c-0.2-1-0.1-2 0.3-2.9 0.5 3.6 1.1 7.3 1.5 10.9 1.6-0.9 3.4-1.8 4.8-3.2-0.5-0.3-1.5-0.5-1.2-1.2 0.4-1 0.5-2.1 1-3.1 1.7 0.4 3.3 2.5 2.8 4.3-0.8 0.2-2-0.3-2.4 0.6-1.2 1.7-3.4 1.8-5 2.9 0 0.9 0.1 1.9-0.1 2.8-0.6-3.7-1-7.4-1.7-11.1zm5.6 3.4c0.5 0.4 1 0.5 1.6 0.5-0.1-0.5-0.2-1.1-0.7-1.3-0.5 0.1-0.7 0.5-0.9 0.8zm2-1q-0.1 0.8-0.2 1.5 0.7 0.1 1.4 0.1c-0.2-0.7-0.7-1.2-1.2-1.6z"/>
			</g>
			<path id="&lt;Path&gt;" class="s0" d="m122.2 20.3c-0.2-0.9 0.1-1.7 0.4-2.4q0.7 3.8 1.4 7.6c0.3 1.9 0.8 3.8 0.2 5.7-0.4-3.7-1.2-7.3-2-10.9z"/>
			<path id="&lt;Path&gt;" class="s0" d="m293.1 20.8c0-0.9 0.3-1.8 0.8-2.5 1.1 0.5 2.4 0.5 3.7 0.4-0.2 1.8-1.8 2.5-2.9 3.5q0.1-0.8 0.2-1.6c-0.6-0.3-1.2-0.2-1.8 0.2z"/>
			<path id="&lt;Path&gt;" class="s0" d="m114.8 20.5q0.1-0.9 0.5-1.8c0.5 1 0.4 2.7-0.9 2.9-1 0-2.1 1.3-2.9 0.2 0-0.5 0.2-0.9 0.3-1.4q0.3 0.4 0.6 0.7c1 0.3 1.2-0.7 1.4-1.5q0.2 0.4 0.3 0.8 0.3 0 0.7 0.1z"/>
			<g id="&lt;Group&gt;">
				<path id="&lt;Compound Path&gt;" fill-rule="evenodd" class="s0" d="m42.9 23.6c0.3-1.5 2.1-2.6 3.4-1.5 2.3 1.6 5.2 2 8 2.2q-0.5 0.8-1 1.5c-2.6-1.1-5.4 0-7.6 1.4-1.4 1.1-2.8-1-4.2-0.2-0.9 0.8-2 1.3-3.2 1.7-7.1 2.3-15.1 2.6-22.1-0.4q-0.2 0.5-0.4 1c-1.2-0.4-2.5-1-3.8-1-0.2 1-0.8 2-1.9 2.2-1.5 0.5-3 1.1-4.5 1.3 1.8-1.4 4.3-2.1 6-3.8 0.4-1.5 0.1-3.4 1.6-4.4 1.7 2.7 5 3.7 8 4.3 2.8 0.8 5.8 0.5 8.7 0.6 3.7 0.1 7.5-0.7 11-2.2 0.9-0.3 1.4-0.9 1.9-1.7q0 0.5-0.1 1c2 1.1 4-0.2 5.7-1-1.6-1.2-3.7-0.9-5.5-1zm-30.6 2.4q0.9 0.4 1.9 0.6-0.3-0.9-0.7-1.8c-0.5 0.2-0.9 0.7-1.2 1.2z"/>
			</g>
			<g id="&lt;Group&gt;">
				<path id="&lt;Compound Path&gt;" fill-rule="evenodd" class="s0" d="m78.1 24.5c0.2-1.5 1.9-3.1 3.5-2 2.2 1.7 4.7 2.9 7.4 3.8-0.5 0.5-0.9 1.6-1.7 1-1.9-1-4-1.4-6.2-1 1.2 1.1 1 2.8-0.1 3.8-1.1-0.2-2.3-0.8-3.4-0.6-0.7 1.1-1.6 2.2-3 2.2-0.5 1.3-0.7 2.8-1.7 3.9-1.1 1.2-2.6 2-4 2.7-7.9 4-16.9 4.7-25.6 4.6-4.3-0.2-8.7-0.8-12.7-2.3-3-1.2-5.7-3.3-7.7-5.8 0.9 0.2 1.5 1 2.3 1.4 7.8 4.4 17.1 5.1 25.9 4.7 6.5-0.4 13.3-1.5 19.1-4.8 1.3-0.7 2.7-1.5 3.5-2.9 0.8-1.5-1.6-2.6-0.4-4.1 0.8 1.4 2.7 1.4 3.8 0.4 0.8-1.1 0.6-2.7 1.6-3.7 1.4-0.6 3-0.5 4.5-0.8-1.2-1.5-3.6-1.5-5.1-0.5zm-0.1 3.1c0.9 0.9 2.1 0.9 3.2 0.9-0.5-1.3-2.2-2.5-3.2-0.9z"/>
			</g>
			<g id="chosen">
				<path id="&lt;Compound Path&gt;" fill-rule="evenodd" class="s0" d="m302.3 27.3c-0.1-1.7-0.8-3.4 0.2-5 1.2 2.8 2.1 5.7 2.7 8.7 0.3 1.3 0 2.8-1 3.6-1.1 0-2-0.9-3-1-0.5 0.4-0.9 1-1.3 1.5-0.9-0.3-1.9-0.9-2.9-0.7-0.9 0.5-1.6 1.3-2.7 1.1-2-0.2-4 0-6 0.4-10.8 1.5-21.8 1.8-32.7 2.4-15.8 1-31.5 1.7-47.4 2-3.6 0.2-7.3 0.2-11 0.2-3.7-0.4-7.4 0.2-11.2 0-13.1 0.1-26.3-0.2-39.3-1.6-6.1-0.9-12.3-1.5-18-3.9q-0.2 0.4-0.4 0.9c-1.3-0.3-2.5-0.7-3.7-1.1-0.6 0.9-1 2.1-2.1 2.4-1.4 0.5-2.7 1-4.1 1.3 1.8-1.4 4.1-2.2 5.5-3.9 0.2-1.5 0.2-3.2 1.6-4.3 0.9 1.4 2.1 2.4 3.6 2.9 7.3 2.9 15.2 3.5 23 4.4 7.7 0.7 15.5 1 23.3 1.2 13.8 0 27.6 0.2 41.4-0.4 13.1-0.2 26.1-1 39.2-1.6 10.9-0.6 21.8-1.1 32.7-2.5 1.8-0.2 3.7-0.4 5.1-1.8q-0.2 0.8-0.4 1.6c1.1 0 2.3 0.2 3.2-0.4 0.8-0.7 1.2-1.6 1.8-2.4-0.1 0.5-0.3 1.1-0.3 1.6 0.7 0.4 1.4 0.5 2.1 0.6q0.4-1 0.8-2c0.9 1 2.4 1.3 3.7 1.4-0.1-2.2-1.1-4.3-1.8-6.3q-0.3 0.3-0.6 0.7zm-177.8 5.5q0.9 0.4 1.9 0.5c-0.1-0.7-0.3-1.3-0.9-1.7q-0.5 0.6-1 1.2z"/>
			</g>
			<path id="&lt;Path&gt;" class="s0" d="m71 23.1q0.8 0.4 1.7 0.9-0.3 0.9-0.8 1.8-0.9-0.5-1.7-1.1 0.4-0.8 0.8-1.6z"/>
			<path id="&lt;Path&gt;" class="s0" d="m293.6 27.2c-0.1-0.9 0.3-1.7 0.9-2.4-0.2 0.9-0.2 2.2 0.9 2.2 1 0.3 1.5-0.8 2-1.4-0.2 0.9-0.4 2-1.3 2.5-0.9 0.5-2.1 0-2.5-0.9z"/>
			<g id="&lt;Group&gt;">
				<path id="&lt;Compound Path&gt;" fill-rule="evenodd" class="s0" d="m117 33.2c-0.5-2.5-2.6-5.1-1.4-7.8 0.4 1.8 1 3.5 1.7 5.2 0.7 1.5 0.3 3.3-0.7 4.6-1.3-0.1-2.4-0.9-3.2-1.9-0.4 0.2-0.5 0.7-0.7 1-0.7 1.3-2.8 1.5-3.7 0.3-0.4-0.6-0.4-1.3-0.6-1.9-0.5 0.5-0.8 1.1-1.3 1.5-1 0.3-2.1 0-3.1-0.4 0.4-0.8 0.8-1.6 1.2-2.4 0.7-1 2.1-0.9 2.9-1.7 0.4-0.5 0.5-1.2 0.9-1.8 0.2 1.4-0.1 2.9 0.2 4.3 0.4 1.6 3.1 1.7 3.9 0.3 0.2-2.3-1.6-4.7-0.4-7 0.6 2 0.6 4.1 1.3 6 0.5 1.2 1.8 1.7 3 1.7zm-11.3-0.9c0.8 0.2 1.7 0.4 2.5 0.2 0.6-0.7 0.1-1.6 0-2.4-0.6 1-1.4 1.7-2.5 2.2z"/>
			</g>
			<path id="&lt;Path&gt;" class="s0" d="m44.4 34c2.3-1.3 4.9-2.3 7.2-3.8-0.9 3-4.6 3.4-7.2 3.8z"/>
			<path id="&lt;Path&gt;" class="s0" d="m38.6 34.1q0.4-0.7 0.8-1.4 0.8 0.4 1.6 0.8c-0.3 0.6-0.5 1.4-1.1 1.6-0.8-0.2-1.4-0.7-2.2-0.5-0.6 0.3-1 0.8-1.5 1.2q-0.6-0.4-1.3-0.8 0.4-0.7 0.8-1.5c0.9 0.4 1.9 0.7 2.9 0.6z"/>
			<path id="&lt;Path&gt;" class="s0" d="m12.5 37c2.4-1.6 5.5-2.1 7.8-4 0 0.8-0.3 1.8-1.1 2.1-2.1 1.2-4.4 1.7-6.7 1.9z"/>
			<path id="&lt;Path&gt;" class="s0" d="m71.8 41.4c3.4-1.6 7.1-2.4 10.3-4.5-0.7 2.1-2.8 2.9-4.7 3.5-1.8 0.5-3.7 1.1-5.6 1z"/>
			<path id="&lt;Path&gt;" class="s0" d="m96.9 41.8c3.2-1.2 6.4-2.5 9.1-4.4-0.2 1-0.7 2.1-1.7 2.6-2.3 1.1-4.8 1.9-7.4 1.8z"/>
			<path id="&lt;Path&gt;" class="s0" d="m301.5 37.7q0.8 0.4 1.6 0.8-0.3 0.9-0.8 1.8-0.8-0.3-1.6-0.8 0.4-0.9 0.8-1.8z"/>
			<path id="&lt;Path&gt;" class="s0" d="m294.8 39.9q0.4-0.7 0.9-1.4c0.1 1-0.3 2.9-1.6 2.3-0.8-0.3-1.3 0.6-1.9 1-1.4-0.7-2.4 0.3-3.3 1.2-1.4 1.2-3.3 1.8-5.2 1.8 2-0.8 4.2-1.4 5.7-3 0.8-1 2-1.8 3.3-1.2q0.5-0.4 1-0.9 0.5 0.1 1.1 0.2z"/>
			<path id="&lt;Path&gt;" class="s0" d="m122.1 43c2.4-1.3 5-2.2 7.3-3.7-0.2 0.7-0.5 1.5-1.1 2-1.8 1.2-4 1.6-6.2 1.7z"/>
			<path id="&lt;Path&gt;" class="s0" d="m298.2 45.6c2.5-1.2 5.3-2 7.7-3.5-0.4 0.9-0.8 2.1-1.9 2.3-1.9 0.6-3.8 1.6-5.8 1.2z"/>
		</g>
	</g>
</svg>